<?xml version="1.0" encoding="UTF-8"?>
<svg width="52px" height="51px" viewBox="0 0 52 51" version="1.1" xmlns="http://www.w3.org/2000/svg" xmlns:xlink="http://www.w3.org/1999/xlink">
    <!-- Generator: Sketch 46.2 (44496) - http://www.bohemiancoding.com/sketch -->
    <title>Delete</title>
    <desc>Created with Sketch.</desc>
    <defs></defs>
    <g id="Page-1" stroke="none" stroke-width="1" fill="none" fill-rule="evenodd">
        <path d="M26.2426407,13.7210153 L13.400305,0.878679656 C12.2287322,-0.292893219 10.3292372,-0.292893219 9.15766435,0.878679656 L1.80681749,8.22952652 L1.80681749,8.22952652 C0.635244614,9.40109939 0.635244614,11.3005943 1.80681749,12.4721672 L1.80681749,12.4721672 L14.6491531,25.3145029 L2.12132034,37.8423357 L2.12132034,37.8423357 C0.949747468,39.0139085 0.949747468,40.9134035 2.12132034,42.0849763 L2.12132034,42.0849763 L9.4721672,49.4358232 C10.6437401,50.6073961 12.543235,50.6073961 13.7148079,49.4358232 L26.2426407,36.9079904 L38.5278328,49.1931825 C39.6994057,50.3647554 41.5989006,50.3647554 42.7704735,49.1931825 L50.1213203,41.8423357 C51.2928932,40.6707628 51.2928932,38.7712678 50.1213203,37.599695 L37.8361282,25.3145029 L50.4358232,12.7148079 C51.6073961,11.543235 51.6073961,9.64374008 50.4358232,8.4721672 L43.0849763,1.12132034 C41.9134035,-0.0502525317 40.0139085,-0.0502525317 38.8423357,1.12132034 L26.2426407,13.7210153 Z" id="Delete" fill="#D8D8D8"></path>
    </g>
</svg>