<?xml version="1.0" encoding="UTF-8"?>
<svg width="59px" height="59px" viewBox="0 0 59 59" version="1.1" xmlns="http://www.w3.org/2000/svg" xmlns:xlink="http://www.w3.org/1999/xlink">
    <!-- Generator: Sketch 46.2 (44496) - http://www.bohemiancoding.com/sketch -->
    <title>Edit</title>
    <desc>Created with Sketch.</desc>
    <defs></defs>
    <g id="Page-1" stroke="none" stroke-width="1" fill="none" fill-rule="evenodd">
        <path d="M9.78153411,41.804724 C8.60996124,40.6331511 8.60996124,38.7336562 9.78153411,37.5620833 L39.6173538,7.72626366 C40.7889267,6.55469079 42.6884216,6.55469079 43.8599945,7.72626366 L51.2139047,15.0801739 C52.3854776,16.2517468 52.3854776,18.1512417 51.2139047,19.3228146 L21.3780851,49.1586343 C20.2065122,50.3302072 18.3070172,50.3302072 17.1354444,49.1586343 L9.78153411,41.804724 Z M44.3994856,5.85494673 C43.6184371,5.07389814 43.6184371,3.80756819 44.3994856,3.0265196 L44.3994856,3.0265196 L46.465778,0.960227203 C47.2468266,0.17917862 48.5131566,0.17917862 49.2942052,0.960227203 L49.2942052,0.960227203 L54.513583,6.179605 L58.0456686,9.71169067 C58.8267172,10.4927393 58.8267172,11.7590692 58.0456686,12.5401178 L55.9793762,14.6064102 C55.1983277,15.3874588 53.9319977,15.3874588 53.1509491,14.6064102 L44.3994856,5.85494673 Z M1.01211341,58.0719837 C-1.02389159,56.0439643 4.98706301,42.5290342 6.34385076,42.0767716 C7.70063851,41.624509 17.4679878,51.3873469 17.0073255,52.7402463 C16.5466631,54.0931458 3.04811842,60.100003 1.01211341,58.0719837 Z" id="Edit" fill="#D8D8D8"></path>
    </g>
</svg>